<?xml version="1.0" encoding="utf-8"?>
<!-- Generator: Adobe Illustrator 23.0.1, SVG Export Plug-In . SVG Version: 6.00 Build 0)  -->
<svg version="1.1" id="Layer_1" xmlns="http://www.w3.org/2000/svg" xmlns:xlink="http://www.w3.org/1999/xlink" x="0px" y="0px"
	 viewBox="0 0 772.08 292.06" style="enable-background:new 0 0 772.08 292.06;" xml:space="preserve">
<style type="text/css">
	.st0{fill:#894B9D;}
	.st1{fill:#3E372D;}
	.st2{fill:#FFFFFF;}
</style>
<g>
	<rect class="st0" width="772.08" height="292.06"/>
	<g>
		<g>
			<path class="st2" d="M370.2,99.22h8.71v25.13l23.77-25.13h10.78l-20.77,21.49l21.7,28.48h-10.64l-17.06-22.48l-7.78,7.99v14.49
				h-8.71V99.22z"/>
			<path class="st2" d="M436.72,99.22h8.71v49.97h-8.71V99.22z"/>
			<path class="st2" d="M473.13,99.22h19.7c2.9,0,5.53,0.39,7.89,1.18s4.35,1.92,6,3.39c1.64,1.48,2.9,3.24,3.78,5.28
				c0.88,2.05,1.32,4.33,1.32,6.85v0.14c0,2.81-0.53,5.27-1.58,7.39c-1.05,2.12-2.48,3.89-4.29,5.32c-1.81,1.43-3.93,2.51-6.37,3.25
				c-2.43,0.74-5.03,1.11-7.8,1.11h-9.95v16.06h-8.71V99.22z M492.07,125.2c3.34,0,5.98-0.83,7.92-2.51c1.93-1.67,2.9-3.82,2.9-6.45
				v-0.14c0-2.96-0.98-5.2-2.94-6.7c-1.96-1.5-4.58-2.26-7.88-2.26h-10.24v18.06H492.07z"/>
			<path class="st2" d="M535.58,99.22h8.71v49.97h-8.71V99.22z"/>
			<path class="st2" d="M571.98,99.22h9.35l15.2,23.63l15.2-23.63h9.35v49.97h-8.71v-35.83l-15.78,23.55h-0.29l-15.63-23.41v35.69
				h-8.71V99.22z"/>
			<path class="st2" d="M672.06,150.04c-3.85,0-7.38-0.68-10.56-2.03s-5.92-3.2-8.21-5.53c-2.28-2.33-4.07-5.06-5.35-8.17
				c-1.29-3.12-1.93-6.43-1.93-9.96v-0.14c0-3.52,0.64-6.84,1.93-9.96c1.29-3.12,3.09-5.85,5.42-8.21c2.33-2.36,5.09-4.22,8.28-5.6
				c3.19-1.38,6.71-2.07,10.56-2.07s7.38,0.68,10.56,2.03c3.19,1.36,5.92,3.2,8.21,5.53c2.28,2.33,4.07,5.06,5.35,8.17
				c1.28,3.12,1.93,6.44,1.93,9.96v0.14c0,3.52-0.64,6.84-1.93,9.96c-1.29,3.12-3.09,5.85-5.42,8.21c-2.33,2.36-5.09,4.22-8.28,5.6
				C679.43,149.35,675.91,150.04,672.06,150.04z M672.2,141.98c2.46,0,4.73-0.46,6.79-1.39c2.06-0.93,3.83-2.19,5.29-3.78
				c1.47-1.59,2.62-3.46,3.45-5.6c0.83-2.14,1.25-4.43,1.25-6.85v-0.14c0-2.43-0.42-4.72-1.25-6.89c-0.83-2.16-1.99-4.04-3.48-5.64
				c-1.49-1.59-3.28-2.87-5.37-3.82s-4.36-1.43-6.82-1.43c-2.46,0-4.73,0.46-6.79,1.39c-2.06,0.93-3.83,2.19-5.3,3.78
				c-1.47,1.59-2.62,3.46-3.45,5.6c-0.83,2.14-1.24,4.42-1.24,6.85v0.14c0,2.43,0.41,4.72,1.24,6.89c0.83,2.17,1.99,4.04,3.48,5.64
				c1.49,1.6,3.28,2.87,5.37,3.82C667.46,141.5,669.73,141.98,672.2,141.98z"/>
		</g>
	</g>
	<g>
		<g>
			<path class="st2" d="M374.15,163.31h5.15c0.89,0,1.67,0.1,2.35,0.3c0.67,0.2,1.24,0.48,1.68,0.84c0.45,0.36,0.79,0.79,1.01,1.28
				c0.23,0.5,0.34,1.04,0.34,1.62c0,0.49-0.09,0.95-0.26,1.38c-0.17,0.43-0.43,0.81-0.75,1.15c-0.33,0.34-0.72,0.63-1.18,0.87
				c-0.46,0.24-0.98,0.43-1.54,0.56l5.65,7.52h-2.65l-5.39-7.29h-2.25v7.29h-2.14V163.31z M376.29,170.75h1.74
				c0.62,0,1.19-0.08,1.71-0.23c0.53-0.16,0.98-0.38,1.36-0.66c0.38-0.28,0.68-0.63,0.89-1.03c0.21-0.41,0.32-0.86,0.32-1.37
				c0-0.47-0.09-0.9-0.26-1.29c-0.17-0.39-0.41-0.72-0.73-1c-0.31-0.28-0.68-0.49-1.11-0.65c-0.43-0.16-0.9-0.23-1.42-0.23h-2.53
				V170.75z"/>
			<path class="st2" d="M402.09,179.18c-1.17,0-2.26-0.21-3.27-0.64c-1.01-0.43-1.89-1.02-2.64-1.76c-0.75-0.74-1.34-1.61-1.77-2.61
				c-0.43-0.99-0.64-2.06-0.64-3.19c0-1.11,0.21-2.16,0.64-3.13c0.43-0.97,1.02-1.82,1.77-2.55c0.75-0.73,1.63-1.3,2.64-1.71
				c1.01-0.42,2.1-0.63,3.27-0.63c1.17,0,2.26,0.21,3.27,0.63c1.01,0.42,1.89,0.99,2.64,1.71c0.75,0.73,1.34,1.58,1.77,2.55
				c0.43,0.97,0.64,2.02,0.64,3.13c0,1.13-0.21,2.19-0.64,3.19c-0.43,0.99-1.02,1.86-1.77,2.61s-1.63,1.33-2.64,1.76
				C404.35,178.97,403.26,179.18,402.09,179.18z M402.09,178.41c0.93,0,1.75-0.19,2.46-0.56c0.71-0.37,1.31-0.89,1.8-1.55
				c0.48-0.66,0.85-1.45,1.1-2.35c0.25-0.9,0.37-1.89,0.37-2.97c0-1.07-0.12-2.05-0.37-2.94c-0.25-0.89-0.62-1.65-1.1-2.3
				c-0.48-0.64-1.08-1.14-1.8-1.5c-0.71-0.35-1.53-0.53-2.46-0.53c-0.94,0-1.76,0.18-2.48,0.53c-0.72,0.35-1.32,0.85-1.8,1.5
				c-0.48,0.64-0.84,1.41-1.09,2.3c-0.25,0.89-0.37,1.87-0.37,2.94c0,1.08,0.12,2.07,0.37,2.97c0.25,0.9,0.61,1.69,1.09,2.35
				c0.48,0.66,1.08,1.18,1.8,1.55C400.33,178.23,401.16,178.41,402.09,178.41z"/>
			<path class="st2" d="M428.01,179.18c-1.17,0-2.26-0.21-3.27-0.64c-1.01-0.43-1.89-1.02-2.64-1.76s-1.34-1.61-1.77-2.61
				c-0.43-0.99-0.64-2.06-0.64-3.19c0-1.11,0.21-2.16,0.64-3.13c0.43-0.97,1.02-1.82,1.77-2.55c0.75-0.73,1.63-1.3,2.64-1.71
				c1.01-0.42,2.1-0.63,3.27-0.63s2.26,0.21,3.27,0.63c1.01,0.42,1.89,0.99,2.64,1.71c0.75,0.73,1.34,1.58,1.77,2.55
				c0.43,0.97,0.64,2.02,0.64,3.13c0,1.13-0.21,2.19-0.64,3.19c-0.43,0.99-1.02,1.86-1.77,2.61c-0.75,0.74-1.63,1.33-2.64,1.76
				C430.27,178.97,429.18,179.18,428.01,179.18z M428.01,178.41c0.93,0,1.75-0.19,2.46-0.56c0.71-0.37,1.31-0.89,1.8-1.55
				c0.48-0.66,0.85-1.45,1.1-2.35c0.25-0.9,0.37-1.89,0.37-2.97c0-1.07-0.12-2.05-0.37-2.94c-0.25-0.89-0.62-1.65-1.1-2.3
				c-0.48-0.64-1.08-1.14-1.8-1.5c-0.71-0.35-1.53-0.53-2.46-0.53c-0.94,0-1.76,0.18-2.48,0.53c-0.72,0.35-1.32,0.85-1.8,1.5
				c-0.48,0.64-0.84,1.41-1.09,2.3c-0.25,0.89-0.37,1.87-0.37,2.94c0,1.08,0.12,2.07,0.37,2.97c0.25,0.9,0.61,1.69,1.09,2.35
				c0.48,0.66,1.08,1.18,1.8,1.55C426.25,178.23,427.07,178.41,428.01,178.41z"/>
			<path class="st2" d="M456.68,163.31v1.01h-5.61v14.5h-2.14v-14.5h-5.61v-1.01H456.68z"/>
			<path class="st2" d="M476,163.31v1.01h-8.18v5.54h5.47v1.01h-5.47v6.95H476v1.01h-10.32v-15.51H476z"/>
			<path class="st2" d="M485.52,163.31h4.94c1.34,0,2.58,0.15,3.73,0.45s2.14,0.76,2.97,1.39c0.83,0.63,1.49,1.42,1.96,2.37
				c0.47,0.95,0.71,2.09,0.71,3.4c0,1.09-0.19,2.12-0.57,3.08c-0.38,0.96-0.95,1.8-1.69,2.51c-0.74,0.71-1.66,1.28-2.75,1.69
				c-1.09,0.41-2.33,0.62-3.74,0.62h-5.55V163.31z M487.66,177.69h3.01c0.91,0,1.77-0.14,2.56-0.43s1.49-0.72,2.09-1.29
				c0.6-0.57,1.07-1.27,1.41-2.1c0.34-0.83,0.51-1.79,0.51-2.88c0-0.96-0.16-1.84-0.49-2.64c-0.32-0.8-0.78-1.49-1.36-2.06
				c-0.58-0.58-1.27-1.03-2.08-1.34c-0.8-0.32-1.68-0.48-2.64-0.48h-3.02V177.69z"/>
			<path class="st2" d="M526.3,163.31h2.14v15.51h-2.14V163.31z"/>
			<path class="st2" d="M538.89,163.31h1.29l10.46,11.65v-11.65h1.15v15.82h-0.58l-11.12-12.76v12.44h-1.18V163.31z"/>
			<path class="st2" d="M578.72,163.31h2.14v15.51h-2.14V163.31z"/>
			<path class="st2" d="M591.31,163.31h2.46l6.12,12.09c0.84-1.56,1.66-3.08,2.46-4.56c0.34-0.63,0.68-1.29,1.04-1.96
				c0.36-0.68,0.71-1.35,1.06-2.01s0.68-1.29,0.99-1.9c0.31-0.61,0.59-1.16,0.84-1.66h2.18v15.51h-2.15v-12.71l-6.52,12.71h-0.49
				l-6.82-13.25v13.25h-1.16V163.31z"/>
			<path class="st2" d="M619.11,163.31h4.68c0.78,0,1.51,0.1,2.19,0.29c0.68,0.2,1.28,0.48,1.78,0.86c0.5,0.38,0.9,0.84,1.19,1.39
				c0.29,0.55,0.43,1.18,0.43,1.89c0,0.7-0.14,1.32-0.43,1.87c-0.28,0.54-0.66,1-1.12,1.36c-0.46,0.37-0.99,0.64-1.57,0.83
				c-0.58,0.19-1.18,0.28-1.78,0.28c-0.26,0-0.54-0.01-0.83-0.03c-0.29-0.02-0.57-0.06-0.85-0.1c-0.28-0.04-0.55-0.09-0.82-0.14
				c-0.27-0.05-0.51-0.1-0.73-0.16v7.17h-2.14V163.31z M621.25,170.65c0.36,0.13,0.72,0.25,1.09,0.34s0.74,0.14,1.12,0.14
				c0.6,0,1.12-0.08,1.57-0.25c0.45-0.17,0.82-0.4,1.12-0.69c0.3-0.29,0.52-0.64,0.67-1.03c0.15-0.39,0.22-0.81,0.22-1.26
				c0-0.52-0.1-0.99-0.29-1.41c-0.2-0.42-0.46-0.78-0.8-1.08c-0.34-0.3-0.73-0.53-1.18-0.7c-0.45-0.16-0.94-0.25-1.45-0.25h-2.08
				V170.65z"/>
			<path class="st2" d="M642.58,162.96l7.3,15.86h-2.23l-2.36-5.17h-6.86l-2.42,5.17h-1.26l7.42-15.86H642.58z M638.9,172.65h5.91
				l-2.97-6.3L638.9,172.65z"/>
			<path class="st2" d="M660,171.13c0,1.08,0.17,2.06,0.51,2.92c0.34,0.86,0.81,1.59,1.4,2.19c0.6,0.6,1.3,1.05,2.11,1.37
				c0.81,0.32,1.68,0.47,2.63,0.47c0.49,0,0.98-0.11,1.47-0.33c0.49-0.22,0.95-0.51,1.39-0.85c0.44-0.35,0.83-0.74,1.19-1.16
				c0.35-0.43,0.64-0.85,0.85-1.26l1.02,0.7c-0.33,0.53-0.71,1.04-1.14,1.52c-0.43,0.48-0.92,0.91-1.48,1.28s-1.19,0.67-1.89,0.89
				c-0.7,0.22-1.47,0.33-2.32,0.33c-1.25,0-2.38-0.21-3.4-0.64c-1.02-0.43-1.9-1.01-2.63-1.74c-0.73-0.73-1.29-1.59-1.69-2.57
				s-0.6-2.01-0.6-3.1c0-0.73,0.09-1.43,0.27-2.12c0.18-0.69,0.45-1.34,0.8-1.94s0.77-1.16,1.26-1.66c0.5-0.5,1.05-0.94,1.68-1.3
				c0.62-0.36,1.31-0.64,2.05-0.84c0.74-0.2,1.54-0.3,2.38-0.3c0.79,0,1.52,0.11,2.19,0.33c0.67,0.22,1.29,0.52,1.85,0.89
				c0.56,0.37,1.06,0.8,1.5,1.29s0.82,0.99,1.15,1.51l-0.97,0.71c-0.3-0.53-0.65-1.02-1.05-1.46c-0.4-0.44-0.83-0.83-1.27-1.15
				c-0.45-0.32-0.91-0.57-1.37-0.75c-0.47-0.18-0.91-0.27-1.33-0.27c-0.9,0-1.74,0.16-2.54,0.49c-0.8,0.33-1.49,0.8-2.09,1.4
				c-0.6,0.61-1.07,1.35-1.41,2.22C660.17,169.05,660,170.04,660,171.13z"/>
			<path class="st2" d="M694.3,163.31v1.01h-5.61v14.5h-2.14v-14.5h-5.61v-1.01H694.3z"/>
		</g>
	</g>
	<g>
		<rect x="365.26" y="191.33" class="st2" width="337.9" height="1.5"/>
	</g>
	<g>
		<circle class="st2" cx="164.33" cy="149.2" r="133.2"/>
	</g>
	<g>
		<g>
			<polygon class="st1" points="128.23,244.43 128.2,244.47 128.19,244.4 			"/>
		</g>
		<g>
			<path class="st1" d="M111.67,101.86c-0.06,0.05-0.11,0.12-0.17,0.19c0.21,0.22,0.38,0.49,0.6,0.69c0.04,0.03,0.06,0.07,0.1,0.1
				c0.1-0.09,0.18-0.19,0.27-0.29C112.2,102.31,111.93,102.09,111.67,101.86z M130.29,94.99c-0.23-0.13-0.5-0.16-0.77-0.25
				c0.3,0.25,0.57,0.54,0.89,0.76c0.55,0.41,1.07,0.84,1.55,1.29c0.2-0.04,0.39-0.09,0.58-0.14
				C131.84,96.05,131.1,95.51,130.29,94.99z M137.03,80.65L135,79.86c0.47,0.52,1.11,1.2,1.86,1.92c0.43,0,0.84-0.08,1.23-0.23
				C137.7,81.25,137.33,80.94,137.03,80.65z M148.47,74.52c-0.17,1.03-0.41,2.01-0.72,2.98c0.4,0.02,0.81-0.02,1.18-0.11
				c0.08-0.31,0.17-0.58,0.24-0.79L148.47,74.52z M155,76.83l-0.46,0.43l-0.01,0.01c-0.2,1.1-0.26,2.21-0.24,3.31
				c0.04,0.01,0.08,0.02,0.12,0.02c0.14,0.01,0.27,0.01,0.39,0c-0.05-0.69-0.08-1.39-0.07-2.09C154.74,77.88,154.79,77.31,155,76.83
				z M162.04,73.27c-0.12,0.28-0.25,0.56-0.35,0.83c0.18,0.01,0.36,0.01,0.54,0.01c0.09-0.17,0.2-0.3,0.37-0.4L162.04,73.27z
				 M168.04,95.2c-0.83,0.08-1.66,0.21-2.48,0.43c0.22,0.15,0.46,0.27,0.7,0.38c0.58-0.16,1.18-0.29,1.77-0.44h0.08L168.04,95.2z
				 M174.77,117.54c-0.31-1.23-0.43-2.47,0.25-3.73l-0.37-0.17c-0.32,0.56-0.48,1.19-0.54,1.85c-0.1,1.22,0.05,2.39,0.44,3.52
				c0.19-0.15,0.37-0.3,0.54-0.47C174.95,118.21,174.84,117.88,174.77,117.54z M180.48,56.57c-0.3,0.27-0.52,0.58-0.68,0.91
				c0.11,0.1,0.23,0.19,0.35,0.29c0.1-0.32,0.23-0.64,0.4-0.96C180.58,56.78,180.51,56.69,180.48,56.57z M176.91,81.34
				c0.69,0.38,1.32,0.7,1.95,1.06c0.83,0.48,1.58,1.02,2.24,1.62c0.17-0.05,0.33-0.13,0.49-0.2
				C180.09,82.43,178.31,81.44,176.91,81.34z M189.6,63.48l-0.01,0.01c-0.05,0.21-0.09,0.42-0.11,0.64
				c0.18-0.24,0.39-0.47,0.62-0.68c0.05-0.04,0.03-0.18,0.09-0.54C189.97,63.1,189.77,63.29,189.6,63.48z M199.32,101.14h-0.01
				c-0.13,0.14-0.25,0.29-0.36,0.45c0.51-0.13,1.01-0.31,1.52-0.57C200.08,101.06,199.7,101.1,199.32,101.14z M199.5,120.51
				c-0.18,0.14-0.36,0.27-0.53,0.42c0.12,0.08,0.24,0.15,0.36,0.21c0.36-0.31,0.71-0.61,1.06-0.91c0.06-0.05,0.05-0.16,0.14-0.45
				C200.07,120.11,199.78,120.3,199.5,120.51z M206.26,73.8c-0.42,0-0.83,0.03-1.23,0.08c-0.02,0.37,0.02,0.71,0.1,1.04
				c1.07-0.21,2.16-0.23,3.23-0.29L206.26,73.8z"/>
			<g>
				<path class="st0" d="M99.81,108.03c-0.27,4.13-3.75,7.26-7.76,6.99c-4-0.27-7.03-3.84-6.75-7.97c0.28-4.14,3.75-7.26,7.76-7
					C97.07,100.33,100.09,103.89,99.81,108.03z"/>
				<path class="st0" d="M170.89,65.59c-0.34,4.75-4.13,8.42-8.66,8.52c-0.18,0-0.36,0-0.54-0.01c-0.08,0-0.16-0.01-0.24-0.01
					c-4.87-0.32-8.55-4.67-8.2-9.69c0.33-5.03,4.56-8.84,9.43-8.51C167.55,56.22,171.23,60.56,170.89,65.59z"/>
				<path class="st0" d="M194.27,51.04c-0.34,5.02-4.56,8.83-9.44,8.51c-1.75-0.13-3.36-0.77-4.68-1.78
					c-0.12-0.1-0.24-0.19-0.35-0.29c-2.12-1.8-3.38-4.59-3.18-7.64c0.34-5.03,4.57-8.83,9.45-8.51
					C190.94,41.67,194.61,46,194.27,51.04z"/>
				
					<ellipse transform="matrix(0.0675 -0.9977 0.9977 0.0675 108.4605 291.0174)" class="st0" cx="209.92" cy="87.49" rx="9.12" ry="8.84"/>
				
					<ellipse transform="matrix(0.0675 -0.9977 0.9977 0.0675 97.5703 330.2315)" class="st0" cx="225.45" cy="112.92" rx="9.12" ry="8.84"/>
				
					<ellipse transform="matrix(0.0675 -0.9977 0.9977 0.0675 61.7096 291.2573)" class="st0" cx="186.67" cy="112.62" rx="9.12" ry="8.84"/>
				<path class="st0" d="M175.62,90.26c-0.26,3.75-3.41,6.6-7.06,6.35c-0.82-0.06-1.6-0.26-2.3-0.6c-0.24-0.11-0.48-0.23-0.7-0.38
					c-2.03-1.28-3.31-3.65-3.13-6.27c0.25-3.76,3.41-6.6,7.05-6.35C173.12,83.25,175.86,86.5,175.62,90.26z"/>
				<path class="st0" d="M212.39,106.89c-0.29,4.3-3.9,7.55-8.05,7.26c-4.17-0.27-7.3-3.98-7.01-8.27c0.11-1.62,0.69-3.09,1.61-4.29
					h0.01c0.11-0.16,0.23-0.31,0.36-0.45h0.01c1.49-1.69,3.69-2.68,6.07-2.52C209.54,98.9,212.68,102.61,212.39,106.89z"/>
				<path class="st0" d="M204.47,65.72c-0.28,4.29-3.89,7.54-8.05,7.26c-4.16-0.28-7.3-3.99-7.01-8.28
					c0.01-0.19,0.04-0.38,0.07-0.57c0.02-0.22,0.06-0.43,0.11-0.64l0.01-0.01c0.81-3.68,4.11-6.29,7.87-6.04
					C201.63,57.72,204.76,61.43,204.47,65.72z"/>
				<path class="st0" d="M137.52,90.27c-0.21,3.07-2.27,5.56-4.98,6.38c-0.19,0.05-0.38,0.1-0.58,0.14
					c-0.58,0.12-1.19,0.16-1.81,0.12c-3.8-0.25-6.68-3.65-6.41-7.57c0.27-3.93,3.56-6.9,7.37-6.64
					C134.92,82.96,137.78,86.35,137.52,90.27z"/>
				
					<ellipse transform="matrix(0.0675 -0.9977 0.9977 0.0675 -11.6483 216.1175)" class="st0" cx="109.79" cy="114.29" rx="7.13" ry="6.91"/>
				
					<ellipse transform="matrix(0.1426 -0.9898 0.9898 0.1426 12.3564 190.798)" class="st0" cx="116.3" cy="88.27" rx="6.08" ry="5.89"/>
				
					<ellipse transform="matrix(0.0675 -0.9977 0.9977 0.0675 9.4594 243.6652)" class="st0" cx="135.08" cy="116.77" rx="4.9" ry="4.75"/>
				
					<ellipse transform="matrix(0.0675 -0.9977 0.9977 0.0675 13.836 219.6674)" class="st0" cx="124.43" cy="102.43" rx="4.9" ry="4.75"/>
				
					<ellipse transform="matrix(0.0675 -0.9977 0.9977 0.0675 -0.5461 231.3949)" class="st0" cx="123.52" cy="115.99" rx="4.9" ry="4.75"/>
				<path class="st0" d="M113.96,98.97c-0.1,1.38-0.64,2.62-1.49,3.58c-0.09,0.1-0.17,0.2-0.27,0.29c-1.13,1.12-2.69,1.77-4.37,1.66
					c-3.17-0.22-5.56-3.04-5.34-6.32c0.22-3.26,2.97-5.74,6.14-5.53C111.79,92.87,114.19,95.69,113.96,98.97z"/>
				<path class="st0" d="M176.53,115.35c-0.08,1.26-0.62,2.38-1.44,3.19c-0.17,0.17-0.35,0.32-0.54,0.47
					c-0.86,0.64-1.94,0.98-3.09,0.9c-2.62-0.17-4.58-2.51-4.4-5.2c0.18-2.71,2.45-4.75,5.06-4.58
					C174.74,110.31,176.71,112.64,176.53,115.35z"/>
				
					<ellipse transform="matrix(0.0675 -0.9977 0.9977 0.0675 104.1612 311.1426)" class="st0" cx="218.53" cy="99.85" rx="4.9" ry="4.75"/>
				
					<ellipse transform="matrix(0.0675 -0.9977 0.9977 0.0675 88.7377 286.0023)" class="st0" cx="197.37" cy="95.53" rx="4.9" ry="4.75"/>
				
					<ellipse transform="matrix(0.0675 -0.9977 0.9977 0.0675 49.4981 258.4626)" class="st0" cx="163.02" cy="102.75" rx="4.34" ry="4.21"/>
				
					<ellipse transform="matrix(0.0675 -0.9977 0.9977 0.0675 72.3983 266.511)" class="st0" cx="178.77" cy="94.52" rx="3.77" ry="3.66"/>
				
					<ellipse transform="matrix(0.0675 -0.9977 0.9977 0.0675 48.3069 236.9662)" class="st0" cx="150.92" cy="92.64" rx="4.34" ry="4.21"/>
				<path class="st0" d="M140.94,77.73c-0.11,1.82-1.29,3.29-2.85,3.82c-0.39,0.15-0.8,0.23-1.23,0.23c-0.14,0.01-0.27,0.01-0.41,0
					c-2.31-0.15-4.06-2.22-3.9-4.61c0.16-2.4,2.18-4.2,4.5-4.05C139.36,73.28,141.11,75.35,140.94,77.73z"/>
				<path class="st0" d="M152.16,73.45c-0.14,1.95-1.48,3.51-3.23,3.94c-0.37,0.09-0.78,0.13-1.18,0.11c-0.02,0.01-0.05,0-0.08,0
					c-2.32-0.15-4.07-2.22-3.91-4.61c0.16-2.4,2.18-4.2,4.49-4.05C150.57,68.99,152.32,71.07,152.16,73.45z"/>
				
					<ellipse transform="matrix(0.0675 -0.9977 0.9977 0.0675 96.761 240.1355)" class="st0" cx="176.85" cy="68.3" rx="4.78" ry="4.64"/>
				
					<ellipse transform="matrix(0.0675 -0.9977 0.9977 0.0675 105.2381 220.6988)" class="st0" cx="170.69" cy="54.05" rx="4.34" ry="4.21"/>
				<path class="st0" d="M183.96,80.2c-0.1,1.6-1.06,2.95-2.37,3.62c-0.16,0.07-0.32,0.15-0.49,0.2c-0.51,0.18-1.06,0.27-1.62,0.23
					c-2.33-0.16-4.07-2.23-3.91-4.63c0.16-2.38,2.17-4.2,4.49-4.04C182.38,75.74,184.13,77.8,183.96,80.2z"/>
				
					<ellipse transform="matrix(0.0675 -0.9977 0.9977 0.0675 31.2993 232.8215)" class="st0" cx="140.2" cy="99.67" rx="3.82" ry="3.7"/>
				
					<ellipse transform="matrix(0.0675 -0.9977 0.9977 0.0675 28.0565 254.8892)" class="st0" cx="150.39" cy="112.44" rx="3.9" ry="3.78"/>
				
					<ellipse transform="matrix(0.0675 -0.9977 0.9977 0.0675 -25.2829 208.4517)" class="st0" cx="98.87" cy="117.75" rx="3.16" ry="3.06"/>
				
					<ellipse transform="matrix(0.0675 -0.9977 0.9977 0.0675 -5.3158 187.9182)" class="st0" cx="97.87" cy="96.8" rx="3.16" ry="3.06"/>
				
					<ellipse transform="matrix(0.0675 -0.9977 0.9977 0.0675 36.6982 199.0851)" class="st0" cx="124.85" cy="79.91" rx="3.16" ry="3.06"/>
				<path class="st0" d="M157.68,77.66c-0.12,1.6-1.37,2.84-2.88,2.94c-0.12,0.01-0.25,0.01-0.39,0c-0.04,0-0.08-0.01-0.12-0.02
					c-1.64-0.16-2.84-1.64-2.72-3.33c0.12-1.74,1.58-3.06,3.27-2.95C156.52,74.42,157.79,75.92,157.68,77.66z"/>
				
					<ellipse transform="matrix(0.0675 -0.9977 0.9977 0.0675 73.858 209.4377)" class="st0" cx="148.97" cy="65.21" rx="3.16" ry="3.06"/>
				
					<ellipse transform="matrix(0.0675 -0.9977 0.9977 0.0675 60.6617 205.0231)" class="st0" cx="140.01" cy="70.06" rx="3.16" ry="3.06"/>
				
					<ellipse transform="matrix(0.0675 -0.9977 0.9977 0.0675 81.8578 243.3258)" class="st0" cx="171.1" cy="77.87" rx="3.16" ry="3.06"/>
				
					<ellipse transform="matrix(0.0675 -0.9977 0.9977 0.0675 91.0577 266.0831)" class="st0" cx="187.88" cy="84.33" rx="3.16" ry="3.06"/>
				<path class="st0" d="M203.74,118.5c-0.13,1.74-1.59,3.06-3.27,2.95c-0.41-0.03-0.79-0.13-1.14-0.31
					c-0.12-0.06-0.24-0.13-0.36-0.21c-0.88-0.61-1.42-1.68-1.34-2.84c0.12-1.74,1.58-3.06,3.26-2.94
					C202.58,115.26,203.85,116.76,203.74,118.5z"/>
				<path class="st0" d="M211.13,74.26c-0.11,1.73-1.58,3.05-3.27,2.94c-1.32-0.09-2.39-1.03-2.73-2.28
					c-0.08-0.33-0.12-0.67-0.1-1.04v-0.03c0.11-1.75,1.57-3.07,3.26-2.96C209.97,71.01,211.24,72.52,211.13,74.26z"/>
				
					<ellipse transform="matrix(0.0675 -0.9977 0.9977 0.0675 82.1958 319.9237)" class="st0" cx="212.25" cy="115.99" rx="3.16" ry="3.06"/>
				
					<ellipse transform="matrix(0.0675 -0.9977 0.9977 0.0675 101.5276 346.9218)" class="st0" cx="236.36" cy="119.15" rx="3.16" ry="3.06"/>
				
					<ellipse transform="matrix(0.0675 -0.9977 0.9977 0.0675 -37.201 190.3185)" class="st0" cx="83.21" cy="115.06" rx="3.16" ry="3.06"/>
			</g>
		</g>
	</g>
	<path class="st1" d="M240.62,186.38c-0.84,0-1.55,0.56-1.8,1.32l-5.65-0.41c-0.09-0.32-0.24-0.65-0.51-0.91
		c-0.73-0.75-1.92-0.75-2.65,0c-0.03,0.02-0.05,0.06-0.07,0.1l-3.72-2.07l-1.91-1.07h-26.74l-3.02-3.3h47.85v-1.08h-9.82
		c-5.74-0.91-18.76-3.22-21.47-3.57c-2.85-0.37-5.65-0.26-8.5-0.12c-2.24,0.11-4.46,0.2-6.68,0.13c-0.9-0.24-1.77-0.35-2.62-0.37
		c-2.02-0.4-3.65-1.51-5.7-1.96c-1.76-0.38-3.67-0.55-5.5-0.55c-0.88,0-1.72,0.05-2.59,0.13c-0.12,0.02-0.24,0.04-0.37,0.05
		c-0.39,0.03-0.68-0.05-0.95-0.19h-0.04l-0.1-0.09c-2.07-2.06-4.3-3.88-6.08-6.21c-1.72-2.25-3.24-4.77-5.71-6.3
		c-0.35-0.21-0.72-0.4-1.09-0.59c-3.04-4.53-5.41-9.42-7.03-14.66c-0.17-0.51-0.33-1.01-0.11-1.6c0.82-2.12,1.9-4.1,3.36-5.86
		l2.29-2.64c0.23-0.16,0.45-0.3,0.67-0.47c0.85-0.65,1.68-1.35,2.56-1.96c5.17-3.48,10.7-5.34,17.09-4.21
		c3.84,0.68,7.48-0.16,10.56-2.73c1.6-1.35,3.18-2.7,4.76-4.05c-0.12-0.06-0.24-0.13-0.36-0.21c-1,0.81-2.01,1.62-3.03,2.4
		c-2.3,1.73-4.65,3.44-7.7,3.53c-1.34,0.04-2.71-0.04-4.05-0.23c-2.8-0.4-5.61-0.85-8.46-0.35c-0.24,0.04-0.5-0.03-0.83-0.06
		c0.13-0.25,0.2-0.39,0.29-0.52c1.37-2.08,1.47-4.19,0.25-6.39c-0.13-0.25-0.25-0.5-0.35-0.77c-0.17,0.17-0.35,0.32-0.54,0.47
		c0.09,0.29,0.21,0.58,0.34,0.87c0.9,2.02,0.49,3.84-0.87,5.54c-0.99,1.27-2.33,1.99-3.81,2.56c-5.23,1.99-9.62,5.12-12.92,9.65
		c-0.13,0.16-0.3,0.3-0.53,0.52c-0.44-5.03,0.13-9.77,1.85-14.39c1.94-5.16,4.88-9.67,9.25-13.18c2.85-2.28,6.08-3.96,9.26-5.7
		c0.26-0.14,0.59-0.26,0.89-0.33c6.14-1.34,12.29-2.51,18.59-2.69c0.78-0.02,1.56-0.08,2.34-0.27h0.01
		c0.11-0.16,0.23-0.31,0.36-0.45c-0.97,0.11-1.91,0.21-2.85,0.22c-4.4,0.06-8.78,0.28-13.14,0.95c-0.54,0.1-1.09,0.16-1.64,0.23
		c0.74-0.58,1.48-1.04,2.23-1.49c2.6-1.59,5.04-3.36,7.05-5.67c2.24-2.56,3.56-5.5,3.65-8.94c0.01-0.45,0.11-0.96,0.32-1.36
		c0.75-1.48,1.48-3,2.38-4.39c1.56-2.41,3.52-4.39,6.33-5.39c0.49-0.17,0.99-0.3,1.49-0.38c-0.08-0.33-0.12-0.67-0.1-1.04
		c-1.17,0.16-2.3,0.52-3.39,1.04c-2.15,1-3.78,2.62-5.2,4.46c-0.77,0.99-1.44,2.06-2.23,3.17c-1.29-3.1-3.22-5.7-5.23-8.26
		c-0.28-0.35-0.51-0.84-0.55-1.29c-0.13-1.69-0.31-3.39-0.25-5.08c0.05-1.37,0.43-2.69,1.3-3.79c0.02-0.22,0.06-0.43,0.11-0.64
		c-2.31,2.42-2.27,5.36-2.27,8.42c-0.24-0.21-0.38-0.29-0.45-0.4c-1.31-1.75-2.71-3.45-3.89-5.28c-0.99-1.52-1.8-3.16-2.54-4.81
		c-0.53-1.19-0.66-2.43-0.29-3.65c-0.12-0.1-0.24-0.19-0.35-0.29c-0.24,0.47-0.36,0.99-0.41,1.53c-0.13,1.42,0.16,2.74,0.7,4.06
		c0.91,2.29,2.29,4.34,3.69,6.36c1.72,2.48,3.54,4.89,5.2,7.4c0.95,1.45,1.81,3,2.5,4.58c0.46,1.07,0.82,2.3,0.76,3.45
		c-0.17,3.58-1.37,6.8-4.09,9.32c-0.71,0.65-1.45,1.25-2.18,1.87c-0.31,0.25-0.66,0.48-1.13,0.83c0.67-3.42,0.81-6.59-0.62-9.63
		c-0.56-1.22-1.53-2.43-2.63-3.43c-0.16,0.07-0.32,0.15-0.49,0.2c1.54,1.42,2.57,3.21,2.98,5.4c0.52,2.75,0.14,5.45-0.81,8.06
		c-0.12,0.34-0.43,0.66-0.73,0.89c-0.41,0.31-0.88,0.56-1.34,0.79c-3.49,1.74-6.99,3.47-10.5,5.2c-2.65,1.3-5.3,2.59-7.72,4.31
		c-0.77,0.55-1.52,1.14-2.32,1.73c-2.35-1.35-4.62-2.79-6.58-4.51c1.18-1.31,2.36-2.44,3.35-3.72c1.84-2.38,4.11-4.23,6.83-5.49
		c0.64-0.29,1.31-0.49,2-0.67c-0.24-0.11-0.48-0.23-0.7-0.38c-0.16,0.04-0.33,0.09-0.49,0.14c-1.93,0.58-3.64,1.57-5.46,2.79
		c0.09-0.33,0.13-0.46,0.2-0.61c2.11-5.44,2.46-11.06,1.73-16.8c-0.27-2.17-0.16-4.34,0.47-6.47c0.07-0.21,0.14-0.4,0.22-0.57
		c-0.18,0-0.36,0-0.54-0.01c-0.98,2.54-1.18,5.2-0.94,7.89c0.22,2.38,0.19,4.74-0.09,7.1c-0.2,1.6-0.57,3.18-0.87,4.89
		c-0.25-0.22-0.35-0.29-0.41-0.38c-2.55-4.02-4.23-8.3-4.58-13c-0.12,0.01-0.25,0.01-0.39,0c-0.04,0-0.08-0.01-0.12-0.02
		c0.01,1.54,0.21,3.08,0.51,4.61c0.7,3.45,2.08,6.64,3.85,9.66c0.37,0.62,0.4,1.14,0.13,1.78c-0.78,1.76-1.7,3.41-2.95,4.87
		c-0.97,1.14-2.01,2.23-3.55,2.95c-1.04-1.18-2.14-2.28-3.07-3.5c-3.72-4.81-4.93-10.01-2.49-15.79c0.62-1.47,1.61-5.6,2.21-7.77
		c-0.37,0.09-0.78,0.13-1.18,0.11c-0.57,1.9-1.37,3.72-2.24,5.52c-0.85,1.73-1.12,1.87-2.94,1.21c-0.78-0.28-1.57-0.62-2.25-1.09
		c-0.66-0.46-1.49-1.01-2.23-1.59c-0.39,0.15-0.8,0.23-1.23,0.23c1.93,1.88,4.53,4.09,6.31,4.62c0.18,0.05,0.34,0.16,0.47,0.24
		c0.02,0.15,0.03,0.22,0.02,0.3c-0.06,0.23-0.14,0.46-0.19,0.69c-0.49,1.89-0.66,3.8-0.42,5.76c0.49,3.79,2.07,7.11,4.34,10.15
		c2.62,3.46,5.87,6.25,9.45,8.69c0.34,0.24,0.68,0.5,0.96,0.72c-2.32,2.95-4.58,5.83-6.87,8.75c-0.18-0.38-0.36-0.78-0.54-1.18
		c-0.95-2.01-2-3.96-3.34-5.75c-2.09-2.74-4.54-5.01-8-5.94c-0.44-0.1-0.71-0.29-0.7-0.79c0-0.28-0.08-0.55-0.12-0.83
		c-0.47-4.43-2.48-7.89-5.69-10.56c-0.19,0.05-0.38,0.1-0.58,0.14c2.2,2.07,3.7,4.59,4.35,7.65c0.28,1.29,0.55,2.62,0.28,3.91
		c-1.22,0.22-2.4,0.33-3.49,0.67c-3.92,1.2-7.75,0.85-11.5-0.63c-3.27-1.29-6.15-3.19-8.75-5.52c-0.12-0.11-0.25-0.22-0.38-0.32
		c-0.09,0.1-0.17,0.2-0.27,0.29c1.33,1.19,2.6,2.45,4.02,3.52c5.19,3.89,10.88,5.95,17.49,4.38c1.17-0.28,2.37-0.28,3.58-0.06
		c2.05,0.36,3.67,1.39,5.17,2.91l1.46,1.78c0.21,0.25,0.36,0.43,0.48,0.61c2.03,3.05,3.3,6.42,4.18,9.91
		c0.11,0.46,0.14,0.97,0.04,1.43c-0.61,2.98-0.45,5.98-0.1,8.97c0.44,3.77,1.22,7.49,2.33,11.13c1.44,4.75,3.42,9.29,5.83,13.63
		c0.17,0.32,0.34,0.55,0.58,0.71c1.15,2.77,3.52,6.54,3.91,7.17c0,0.77-2.83,3.48-3.47,4.02c-0.01,0-0.01,0-0.01,0
		c-0.09,0.02-0.16,0.05-0.24,0.08c-1.68-0.36-3.39-0.51-5.1-0.51c-1.83,0-3.75,0.17-5.51,0.55c-2.04,0.45-3.67,1.56-5.69,1.96
		c-0.84,0.02-1.69,0.13-2.58,0.36c-2.33,0.08-4.64-0.01-6.96-0.12c-2.85-0.14-5.66-0.25-8.5,0.12c-2.18,0.29-7.19,2.8-11.16,4.47
		l-0.02,0.01c-0.84,0.36-1.63,0.68-2.34,0.93l-28.47-0.19v1.08l28.1,0.18l1.49-0.35c0,0,9.07-4.05,11.29-4.61
		c2.59-0.06,5.17,0.03,7.75,0.12c2.77,0.1,5.55,0.26,8.32,0.09c1.71-0.12,3.21-0.33,4.78-0.25c1.07,0.1,2.16,0.26,3.29,0.56
		c1.95,0.57,3.88,1.05,5.93,1.09c1.66,0.05,3.33-0.13,4.97-0.45l-1.56,1.11H137.5l-1.7,1.81l-1.01,1.06l-0.5,0.53l-2.02,2.13h-32.7
		l-4.15,4.74h-0.01c-0.47-0.32-1.05-0.51-1.66-0.51c-1.62,0-2.94,1.31-2.94,2.93c0,1.24,0.79,2.3,1.89,2.72v6l1.43,0.01h5.6
		c0.16,0.4,0.54,0.68,0.99,0.69c0.64,0.03,1.16-0.45,1.19-1.07c0-0.3-0.11-0.52-0.21-0.65l-0.25-0.29c-0.18-0.14-0.4-0.23-0.63-0.24
		c-0.41-0.02-0.77,0.2-0.99,0.53h-6.08v-4.77c0.81,0,1.56-0.33,2.1-0.86c0.54-0.54,0.86-1.27,0.86-2.07c0-0.6-0.18-1.18-0.52-1.66
		l3.88-4.42h7.89l-3.57,3.78c-0.3-0.16-0.63-0.25-1-0.21c-0.88,0.07-1.51,0.85-1.43,1.71c0.09,0.87,0.86,1.5,1.75,1.43
		c0.88-0.09,1.52-0.88,1.42-1.74c-0.01-0.12-0.02-0.23-0.06-0.33l4.37-4.64h15.35l-3.77,5.36h-7.84l-5.87,4.7
		c-0.18-0.09-0.4-0.14-0.63-0.14c-0.89,0-1.6,0.72-1.6,1.59c0,0.55,0.29,1.01,0.7,1.3v5.3h-5.62c-0.02-0.03-0.05-0.09-0.07-0.11
		l-0.25-0.27c-0.18-0.16-0.41-0.24-0.65-0.25c-0.62-0.01-1.14,0.46-1.17,1.09c-0.02,0.62,0.46,1.16,1.09,1.17
		c0.45,0.02,0.83-0.22,1.03-0.59h5.64v8.66h5.83v2.81c-0.34,0.18-0.58,0.51-0.6,0.92c-0.02,0.63,0.46,1.16,1.08,1.19
		c0.63,0.02,1.17-0.48,1.18-1.09c0.02-0.31-0.08-0.53-0.19-0.67l-0.24-0.27c-0.06-0.04-0.12-0.06-0.17-0.08v-3.85h-5.83v-3.23h5
		c0.22,0.78,0.98,1.32,1.81,1.17c0.88-0.13,1.48-0.96,1.33-1.84c-0.07-0.4-0.29-0.69-0.46-0.84l-0.43-0.32
		c-0.31-0.15-0.63-0.2-0.96-0.15c-0.55,0.09-0.99,0.47-1.21,0.93h-5.08v-9.41c0.81-0.08,1.44-0.75,1.44-1.57
		c0-0.26-0.07-0.48-0.18-0.7l5.46-4.38h8.04l4.51-6.43h6.65l3.51-3.71l0.01-0.01l1.01-1.07l0.7-0.75h5.67l-9.38,9.12H129l-8.2,9.81
		c-0.23-0.11-0.48-0.2-0.76-0.2c-0.87,0-1.59,0.72-1.59,1.6c0,0.68,0.46,1.28,1.1,1.48v12.24c-1.38,0.25-2.41,1.44-2.41,2.84
		c0,1.44,1.03,2.65,2.41,2.89v4.59h-5.72v5.2c-0.63,0.05-1.14,0.53-1.23,1.15c-0.01,0.06-0.02,0.13-0.02,0.19v0.01
		c0,0.76,0.62,1.36,1.37,1.36s1.36-0.6,1.36-1.36c0-0.39-0.17-0.74-0.43-0.99v-4.52h4.67v9.35c-1.37,0.24-2.41,1.43-2.41,2.85
		c0,1.33,0.9,2.43,2.14,2.78l1.05,0.09c0.39-0.02,0.76-0.13,1.1-0.3l5.85,4.48l0.67,5.06c-0.24,0.12-0.44,0.32-0.57,0.55
		c-0.16,0.24-0.24,0.52-0.24,0.82c0,0.87,0.71,1.58,1.58,1.58c0.86,0,1.56-0.69,1.58-1.55v-0.03c0-0.81-0.61-1.48-1.4-1.56
		l-0.7-5.31l-0.01-0.07l-0.06-0.04l-5.9-4.52c0.49-0.52,0.78-1.21,0.78-1.98c0-1.42-1.04-2.61-2.4-2.85v-7.34h4.64
		c0.21,0.77,0.96,1.31,1.81,1.18c0.25-0.06,0.49-0.15,0.68-0.31l3.88,3.18c-0.51,0.53-0.82,1.25-0.82,2.04
		c0,1.43,1.05,2.61,2.43,2.85l-0.06,17.75l5.41,5.35c-0.02,0.1-0.05,0.18-0.05,0.28c0,0.61,0.48,1.09,1.09,1.09
		c0.1,0,0.21-0.02,0.3-0.05c0.19-0.05,0.36-0.15,0.49-0.29c0.18-0.2,0.29-0.45,0.29-0.75c0-0.58-0.48-1.06-1.08-1.06
		c-0.11,0-0.2,0.02-0.29,0.05l-5.09-5.05l0.04-11.21h6.37c0.19,0.36,0.55,0.64,1,0.64c0.59,0,1.09-0.5,1.09-1.09
		c0-0.58-0.5-1.09-1.09-1.09c-0.38,0-0.7,0.21-0.89,0.5h-6.48l0.01-5.08c1.35-0.25,2.37-1.42,2.37-2.84c0-1.62-1.3-2.91-2.93-2.91
		c-0.43,0-0.83,0.09-1.2,0.26l-4.19-3.44c0.06-0.19,0.07-0.44,0.04-0.67c-0.06-0.41-0.29-0.69-0.47-0.86l-0.41-0.3
		c-0.31-0.15-0.64-0.21-0.97-0.14c-0.55,0.08-0.99,0.44-1.2,0.92h-4.72v-6.59c1.35-0.26,2.4-1.45,2.4-2.89
		c0-0.67-0.23-1.28-0.64-1.75l-0.5-0.51c0,0,0,0-0.01-0.02c-0.37-0.29-0.79-0.47-1.25-0.56v-12.25c0.6-0.24,1.03-0.8,1.03-1.47
		c0-0.21-0.04-0.41-0.12-0.58l8-9.57h5.21l10.47-10.18h4.66l-4.48,4.71c-0.26-0.14-0.58-0.21-0.9-0.18c-0.87,0.1-1.5,0.87-1.44,1.72
		c0.11,0.89,0.89,1.52,1.76,1.42c0.89-0.07,1.52-0.85,1.44-1.73c-0.02-0.16-0.07-0.29-0.14-0.45l5.26-5.49h4.47l2.89-2.05v-0.34h4
		l-4.65,5.06l-0.63,0.69l-5.97,5.85h-3.41l-13.49,11.69c-0.12-0.04-0.24-0.07-0.36-0.09c-0.89-0.12-1.68,0.5-1.8,1.37
		c-0.07,0.69,0.3,1.32,0.9,1.61v4.39h-6.2c-0.01-0.04-0.04-0.1-0.05-0.12l-0.25-0.26c-0.18-0.15-0.41-0.23-0.65-0.24
		c-0.62-0.03-1.15,0.46-1.18,1.07c-0.03,0.63,0.45,1.15,1.09,1.17c0.45,0.03,0.84-0.21,1.03-0.57h6.21v9.16
		c-0.35,0.18-0.63,0.53-0.64,0.96c-0.03,0.62,0.47,1.15,1.09,1.17c0.64,0.03,1.17-0.46,1.19-1.09c0.01-0.3-0.1-0.52-0.21-0.66
		l-0.22-0.28c-0.04-0.02-0.11-0.04-0.15-0.06v-14.52c0.62-0.15,1.13-0.66,1.21-1.33c0.05-0.34-0.02-0.69-0.19-0.96l13.07-11.34h3.46
		l5.72-5.59v2.44l-6.68,6.63v1.4l-7,6.92c-0.13-0.09-0.29-0.15-0.48-0.17c-0.87-0.1-1.67,0.51-1.79,1.37
		c-0.11,0.86,0.51,1.65,1.38,1.77c0.87,0.11,1.67-0.5,1.79-1.37c0.05-0.29-0.01-0.58-0.13-0.83l6.23-6.17v7.33l-5.25,5.18
		c-0.46-0.3-1-0.48-1.61-0.48c-1.64,0-2.95,1.31-2.95,2.93c0,1.23,0.79,2.31,1.89,2.74v15.47c-0.34,0.19-0.59,0.54-0.61,0.94
		c-0.03,0.62,0.47,1.15,1.08,1.19c0.63,0.01,1.17-0.48,1.2-1.11c0.01-0.28-0.1-0.51-0.2-0.66l-0.25-0.25
		c-0.05-0.06-0.11-0.08-0.16-0.11v-9.14h2.48l0.46,0.64l1.62,4.24l0.32,0.29l-0.21,21.65h-10.96c-0.16-0.34-0.51-0.59-0.91-0.59
		c-0.56,0-1.01,0.46-1.01,1.01c0,0.56,0.45,1.02,1.01,1.02c0.36,0,0.65-0.2,0.83-0.48h7.18l2.42,12.35h0.96l-2.43-12.35h5.81
		c0.27,0,0.48-0.21,0.48-0.48s-0.21-0.48-0.48-0.48h-1.95l0.2-20.79l3.39,3.09c-0.06,0.19-0.11,0.36-0.11,0.56
		c0,0.77,0.58,1.39,1.33,1.55l0.48,12.59c-0.75,0.24-1.32,0.95-1.32,1.79c0,1.05,0.86,1.89,1.92,1.89c1.04,0,1.9-0.84,1.9-1.89
		c0-0.89-0.62-1.61-1.45-1.82l-0.32-8.58h10.49c0.2,0.31,0.53,0.55,0.94,0.55c0.6,0,1.09-0.48,1.09-1.09c0-0.59-0.49-1.07-1.09-1.07
		c-0.41,0-0.74,0.22-0.94,0.56h-10.54l-0.11-3.14c0.47-0.26,0.79-0.77,0.79-1.34c0-0.88-0.71-1.58-1.59-1.58
		c-0.28,0-0.59,0.1-0.82,0.24l-4.42-4.05l-1.58-4.07l-0.14-0.22h1.83c0.02,0.04,0.04,0.08,0.06,0.12l0.25,0.26
		c0.18,0.15,0.41,0.24,0.64,0.25c0.64,0.02,1.16-0.46,1.19-1.08c0.02-0.63-0.46-1.15-1.09-1.17c-0.44-0.03-0.83,0.21-1.03,0.58
		h-5.57v-5.09c0.82,0,1.55-0.33,2.09-0.87c0.53-0.52,0.87-1.27,0.87-2.07c0-0.63-0.2-1.22-0.56-1.71l2.97-2.93l0.34,0.48l1.63,4.23
		l4.84,4.46c0,0.03-0.01,0.05-0.01,0.1c-0.07,0.57,0.32,1.1,0.91,1.18c0.57,0.07,1.11-0.33,1.2-0.91c0.06-0.58-0.34-1.11-0.93-1.19
		c-0.16-0.02-0.33,0.01-0.46,0.07l-4.68-4.29l-1.58-4.08l-0.54-0.77l1.86-1.83v-10.24l1.27-1.28l3.46,3.41v3.89l4.2,4.17l-0.03,0.15
		c-0.1,0.81,0.42,1.55,1.23,1.73v13.69c-0.6,0.24-1.02,0.79-1.02,1.46c0,0.86,0.72,1.56,1.59,1.56c0.32,0,0.61-0.09,0.85-0.24
		l5.1,3.07c0,0.01-0.01,0.01-0.01,0.02c0,0.61,0.5,1.09,1.1,1.09c0.59,0,1.1-0.48,1.1-1.09c0-0.58-0.51-1.07-1.1-1.07
		c-0.2,0-0.37,0.06-0.54,0.15l-4.99-3.01c0.05-0.15,0.09-0.32,0.09-0.48c0-0.71-0.49-1.29-1.12-1.5v-13.76
		c0.02-0.01,0.05-0.03,0.07-0.04c0.08-0.05,0.17-0.09,0.23-0.14c0.01-0.01,0.02-0.03,0.03-0.04c0.36-0.28,0.59-0.71,0.59-1.21
		c0-0.69-0.46-1.28-1.1-1.48c-0.08-0.02-0.18-0.05-0.26-0.06h-0.06c-0.03-0.01-0.06-0.01-0.08-0.01s-0.06-0.01-0.09-0.01
		c-0.01,0-0.03,0.01-0.06,0.01c-0.07,0-0.17,0.01-0.26,0.02c-0.23,0.04-0.46,0.14-0.65,0.27l-3.72-3.69v-3.89l-3.77-3.73l4.63-4.59
		v-4.02l4.71-5.11v15.14h3.49c0.13,0.4,0.49,0.75,0.95,0.81c0.63,0.06,1.17-0.37,1.27-0.97c0.08-0.61-0.37-1.18-0.97-1.25
		c-0.37-0.06-0.69,0.09-0.95,0.33h-2.71v-14.9h6.54l1.83,1.32l-5.01,4.46c-0.13-0.06-0.28-0.09-0.45-0.09
		c-0.6,0-1.11,0.49-1.11,1.11c0,0.6,0.51,1.08,1.11,1.08c0.63,0,1.12-0.48,1.12-1.08c0-0.06-0.02-0.09-0.02-0.15l5.27-4.67h0.01
		l0.2,0.14v4.46l3.92,3.14l-4.39,3.26l-1.27,4.31l-2.93,2.74c-0.02,0-0.04-0.01-0.06-0.01c-0.05-0.01-0.09,0-0.14,0
		c-0.24-0.07-0.49-0.1-0.73-0.07c-0.87,0.16-1.48,0.96-1.33,1.84c0.1,0.58,0.53,1.05,1.06,1.24v14.47c-0.35,0.18-0.59,0.51-0.6,0.92
		c-0.04,0.63,0.45,1.16,1.08,1.18c0.07,0.01,0.14-0.02,0.2-0.02l6.56,11.55c-0.07,0.15-0.13,0.31-0.13,0.48
		c0,0.48,0.33,0.87,0.77,1.01l1.08,5.23c-0.28,0.21-0.48,0.53-0.48,0.91c0,0.64,0.52,1.15,1.15,1.15c0.64,0,1.15-0.51,1.15-1.15
		c0-0.54-0.38-0.98-0.89-1.1l-1.07-5.19c0.29-0.19,0.49-0.49,0.49-0.86c0-0.6-0.51-1.08-1.11-1.08c-0.02,0-0.05,0.01-0.08,0.02
		l-3.95-6.97l11.9,3.3c0.06,0.51,0.45,0.91,0.95,0.97l1.45,3.95c-0.29,0.2-0.48,0.53-0.48,0.91c0,0.64,0.52,1.16,1.15,1.16
		c0.64,0,1.15-0.52,1.15-1.16c0-0.53-0.37-0.96-0.86-1.09l-1.5-4.07c0.2-0.19,0.32-0.46,0.32-0.76c0-0.58-0.51-1.07-1.11-1.07
		c-0.22,0-0.43,0.09-0.6,0.21l-13.1-3.65l-1.9-3.33c0.07-0.14,0.12-0.28,0.12-0.44c0.01-0.28-0.1-0.52-0.2-0.65l-0.24-0.27
		c-0.05-0.04-0.11-0.06-0.17-0.09V200.9c0.73-0.25,1.19-0.99,1.07-1.76c0.02-0.2-0.01-0.37-0.08-0.54l3.06-2.86l1.25-4.26l4.03-3
		h0.53l3.63,2.93v5.45l-5.06,6.08v3.84c-0.08,0.05-0.18,0.11-0.27,0.18c0,0.02,0,0.03-0.04,0.04c-0.17,0.16-0.3,0.38-0.35,0.64
		c0,0.03,0.01,0.05,0.01,0.09v0.01c-0.01,0.04,0.01,0.07,0.01,0.09c0,0.1,0.01,0.21,0.06,0.3c0.01,0.11,0.07,0.18,0.1,0.25
		c0.04,0.02,0.05,0.07,0.08,0.11c0.2,0.24,0.48,0.42,0.82,0.44l0.01,0.03l0.96,4.45l4.09,5.13c0,0.04-0.02,0.05-0.04,0.1
		c-0.17,0.56,0.15,1.13,0.72,1.29c0.56,0.18,1.15-0.14,1.31-0.7c0.15-0.56-0.15-1.13-0.71-1.31c-0.18-0.04-0.33-0.03-0.48-0.01
		l-3.94-4.94l-0.91-4.27l-0.09-0.18c0.16-0.2,0.28-0.41,0.29-0.67c0.01-0.31-0.1-0.54-0.2-0.67l-0.08-0.09
		c-0.02-0.03-0.06-0.05-0.08-0.06l-0.09-0.12c-0.02,0-0.04-0.02-0.06-0.02l-0.03-0.04v-3.52l4.61-5.53l5.96,4.65h-0.03l-0.61,0.84
		l-1.56,4.08l-4.67,4.28c-0.16-0.05-0.3-0.08-0.47-0.06c-0.59,0.07-0.98,0.6-0.92,1.19c0.07,0.57,0.61,0.97,1.19,0.9
		c0.58-0.08,1-0.6,0.9-1.18c0-0.05-0.01-0.07-0.01-0.11l4.86-4.44l1.63-4.24l0.48-0.66l0.2,0.16v3.65l3.27,4.71
		c-0.36,0.4-0.59,0.97-0.59,1.54c0,1.3,1.06,2.35,2.38,2.35c1.33,0,2.39-1.05,2.39-2.35c0-1.3-1.06-2.36-2.39-2.36
		c-0.32,0-0.62,0.06-0.91,0.19l-3.06-4.41v-3.84l-3.67-2.87h5.02v2l2.92,2.88c-0.02,0.05-0.06,0.11-0.06,0.16
		c-0.09,0.61,0.35,1.17,0.96,1.25c0.64,0.08,1.2-0.34,1.28-0.97c0.07-0.61-0.35-1.16-0.98-1.24c-0.15-0.03-0.31,0-0.46,0.03
		l-2.58-2.55v-2.63h-7.49l-2.52-1.96v-5.88l-3.02-2.43h5.49l7.04,7.68h4.34l8.72,8.63c-0.02,0.02-0.03,0.04-0.03,0.07
		c-0.08,0.57,0.31,1.09,0.87,1.21l0.2,2.41l-0.03,0.03l0.04,0.04l0.72,9.02c-0.2,0.14-0.33,0.36-0.33,0.62
		c0,0.44,0.35,0.79,0.79,0.79c0.43,0,0.78-0.35,0.78-0.79c0-0.24-0.11-0.45-0.28-0.59l-0.64-7.94l4.29,4.55
		c-0.02,0.11-0.06,0.22-0.06,0.34c0,0.64,0.51,1.16,1.14,1.16c0.64,0,1.16-0.52,1.16-1.16c0-0.63-0.52-1.14-1.16-1.14
		c-0.15,0-0.3,0.03-0.44,0.08l-5.05-5.35l-0.18-2.26c0.22-0.17,0.38-0.43,0.42-0.74c0.08-0.61-0.36-1.16-0.96-1.24
		c-0.2-0.03-0.38,0.01-0.54,0.07l-8.97-8.88h-4.33l-7.03-7.69h-7.32l-4.31-3.47v-4.5l-2.18-1.57h3.51c0.69,0.16,1.37,0.29,2.07,0.4
		c0.13,0.02,0.24,0.04,0.34,0.05l1.59,1.73h5.48l5.17,3.91l-1.73,1.98l3.6,4.06c-0.2,0.26-0.33,0.59-0.37,0.93
		c-0.16,1.2,0.7,2.27,1.89,2.45c0.1,0.01,0.19,0.01,0.29,0.01c1.09,0,2.02-0.82,2.18-1.89c0.15-1.2-0.69-2.3-1.9-2.44
		c-0.45-0.06-0.88,0.02-1.28,0.24l-2.97-3.36l1.87-2.12l-4.97-3.77h5.4l15.16,16.59h5.44l3.81,3.21c0,0.03-0.02,0.06-0.02,0.07
		c-0.07,0.53,0.25,0.99,0.73,1.17l1.62,9.49c-0.14,0.14-0.23,0.33-0.23,0.54c0,0.42,0.34,0.76,0.76,0.76c0.41,0,0.75-0.34,0.75-0.76
		c0-0.24-0.13-0.45-0.32-0.6l-1.63-9.51c0.29-0.16,0.5-0.44,0.55-0.8c0.09-0.62-0.36-1.18-0.97-1.26c-0.19-0.01-0.38,0.01-0.53,0.08
		l-4.12-3.46h-5.35l-6.7-7.32l6.53-0.13l1.77,2.44c-0.08,0.14-0.12,0.3-0.12,0.46c0,0.53,0.43,0.97,1,0.97
		c0.53,0,0.98-0.44,0.98-0.97c0-0.56-0.45-1-0.98-1c-0.01,0-0.01,0-0.01,0l-1.44-1.99l11.75-0.14l1.93,1.71h-0.07v6.99h-3.48
		c-0.05-0.07-0.08-0.15-0.15-0.2c-0.4-0.41-1.05-0.41-1.46,0c-0.4,0.39-0.4,1.04,0,1.44c0.41,0.41,1.06,0.41,1.46,0
		c0.07-0.06,0.1-0.13,0.15-0.2h7.45l1.21,7.27c-0.4,0.39-0.4,1.04,0,1.44c0.41,0.4,1.06,0.4,1.47,0c0.4-0.4,0.4-1.05,0-1.46
		c-0.13-0.11-0.28-0.19-0.45-0.25l-1.32-8.04h-3.82v-6.12l6.56,5.82c-0.45,0.5-0.73,1.13-0.73,1.84c0,1.51,1.26,2.75,2.79,2.75
		c1.54,0,2.79-1.24,2.79-2.75c0-1.52-1.25-2.77-2.79-2.77c-0.45,0-0.88,0.11-1.24,0.31l-9.9-8.81l-13.9,0.19l-6.94,0.14l-2.52-2.77
		h25.52l5.41,3.02c-0.09,0.59,0.07,1.2,0.52,1.64c0.73,0.73,1.92,0.73,2.65,0c0.22-0.2,0.36-0.46,0.44-0.71l5.69,0.39
		c0.21,0.82,0.94,1.45,1.83,1.45c1.03,0,1.88-0.86,1.88-1.91C242.5,187.23,241.65,186.38,240.62,186.38z M156.88,175.47
		c-0.31,0.23-0.63,0.42-0.96,0.59v0.02c-0.24,0.11-0.49,0.24-0.73,0.34c-0.35,0.14-0.71,0.27-1.06,0.39
		c-1.46,0.09-2.93,0.05-4.42-0.21c-1.61-0.27-3.13-0.72-4.62-1.07c2.54-0.28,5.13-0.51,7.68-0.45c1,0.05,2,0.1,3,0.19
		c0.37,0.03,0.73,0.05,1.11,0.11c0.03,0,0.08,0,0.14,0.01C156.96,175.41,156.91,175.45,156.88,175.47z M93.75,193.72
		c-1.02,0-1.85-0.83-1.85-1.85s0.83-1.86,1.85-1.86c0.37,0,0.71,0.12,1,0.28l0.42,0.35c0.28,0.33,0.46,0.77,0.46,1.23
		C95.63,192.89,94.79,193.72,93.75,193.72z M133.73,231.87c1.05,0,1.9,0.84,1.9,1.89c0,1.03-0.85,1.87-1.9,1.87
		c-1.06,0-1.91-0.84-1.91-1.87C131.82,232.71,132.67,231.87,133.73,231.87z M121.98,237.86c0,1.05-0.84,1.89-1.9,1.89
		c-1.05,0-1.91-0.84-1.91-1.89c0-1.04,0.86-1.88,1.91-1.88C121.14,235.98,121.98,236.82,121.98,237.86z M120.91,215.46l0.51,0.37
		c0.21,0.18,0.47,0.52,0.54,1.02c0.18,1.01-0.5,1.96-1.49,2.17h-0.78c-0.76-0.16-1.37-0.77-1.5-1.56c-0.17-1.04,0.54-2.01,1.58-2.17
		C120.16,215.21,120.55,215.29,120.91,215.46z M155.61,245.34c0.67,0,1.23,0.55,1.23,1.23c0,0.69-0.56,1.22-1.23,1.22
		c-0.7,0-1.25-0.53-1.25-1.22C154.36,245.89,154.91,245.34,155.61,245.34z M144.1,213.75c-1.03,0-1.87-0.83-1.87-1.86
		c0-1.02,0.84-1.86,1.87-1.86c0.43,0,0.82,0.15,1.13,0.39c0.02,0.01,0.02,0.01,0.02,0.01l0.33,0.33c0.24,0.31,0.39,0.69,0.39,1.13
		C145.97,212.92,145.13,213.75,144.1,213.75z M177.77,235.86c0.42,0,0.76,0.34,0.76,0.76c0,0.42-0.34,0.75-0.76,0.75
		s-0.76-0.33-0.76-0.75C177.01,236.2,177.35,235.86,177.77,235.86z M187.28,229.82c0.42,0,0.76,0.33,0.76,0.75s-0.34,0.76-0.76,0.76
		c-0.41,0-0.76-0.34-0.76-0.76S186.87,229.82,187.28,229.82z M195.33,211.83c0.72,0,1.3,0.56,1.3,1.28c0,0.7-0.58,1.28-1.3,1.28
		c-0.71,0-1.29-0.58-1.29-1.28C194.04,212.39,194.62,211.83,195.33,211.83z M213.81,213.8c0.42,0,0.77,0.33,0.77,0.75
		s-0.35,0.76-0.77,0.76c-0.41,0-0.75-0.34-0.75-0.76S213.4,213.8,213.81,213.8z M193.87,190.57v-0.02l0.37-0.34
		c0.17-0.06,0.34-0.1,0.52-0.1c0.05,0,0.09,0,0.13,0.02c0.31,0.02,0.57,0.17,0.75,0.4c0.17,0.23,0.25,0.53,0.22,0.81
		c-0.08,0.59-0.63,1.02-1.25,0.95c-0.6-0.09-1.03-0.63-0.94-1.23C193.68,190.88,193.76,190.71,193.87,190.57z M189.37,175.53
		c-1.28,0.3-2.57,0.64-3.91,0.94c-0.24-0.1-0.5-0.16-0.75-0.23c-0.19-0.03-0.36-0.08-0.56-0.12c-0.67-0.34-1.33-0.68-2.01-1.05
		C184.53,175.06,186.97,175.25,189.37,175.53z M180.91,178.96l-0.45-0.49c0.64,0.05,1.28,0.06,1.92,0.05
		c1.52-0.03,2.95-0.3,4.38-0.66h0.27c-0.02-0.02-0.03-0.03-0.03-0.05c0.43-0.13,0.88-0.24,1.33-0.38c1.19-0.31,2.33-0.49,3.49-0.58
		c1.4-0.01,2.77,0.15,4.31,0.27c2.78,0.17,5.55,0.01,8.33-0.09c2.59-0.09,5.16-0.18,7.76-0.12c1.97,0.05,11.16,1.37,17.31,2.05
		H180.91z M233.06,196.37c0.97,0,1.76,0.79,1.76,1.75c0,0.96-0.79,1.73-1.76,1.73s-1.77-0.77-1.77-1.73
		C231.29,197.16,232.09,196.37,233.06,196.37z"/>
	<rect x="331.82" y="65.11" class="st2" width="4.07" height="168.17"/>
</g>
</svg>
